<svg width="20" height="21" viewBox="0 0 20 21" fill="none" xmlns="http://www.w3.org/2000/svg">
<path d="M3.88281 9.64997C3.88281 6.93195 3.88281 5.57197 4.72763 4.72812C5.57148 3.8833 6.93146 3.8833 9.64948 3.8833H12.5328C15.2508 3.8833 16.6108 3.8833 17.4547 4.72812C18.2995 5.57197 18.2995 6.93195 18.2995 9.64997V14.4555C18.2995 17.1735 18.2995 18.5335 17.4547 19.3774C16.6108 20.2222 15.2508 20.2222 12.5328 20.2222H9.64948C6.93146 20.2222 5.57148 20.2222 4.72763 19.3774C3.88281 18.5335 3.88281 17.1735 3.88281 14.4555V9.64997Z" stroke="white" stroke-width="1.5"/>
<path opacity="0.5" d="M3.88333 17.3389C3.11863 17.3389 2.38524 17.0351 1.84451 16.4944C1.30378 15.9537 1 15.2203 1 14.4556V8.68889C1 5.06454 1 3.25188 2.12642 2.12642C3.25284 1.00096 5.06454 1 8.68889 1H12.5333C13.298 1 14.0314 1.30378 14.5722 1.84451C15.1129 2.38524 15.4167 3.11863 15.4167 3.88333" stroke="white" stroke-width="1.5"/>
</svg>
