<svg width="29" height="30" viewBox="0 0 29 30" fill="none" xmlns="http://www.w3.org/2000/svg">
<path d="M14.5001 13.125C13.2183 13.125 11.9891 12.6311 11.0827 11.7521C10.1764 10.873 9.66724 9.6807 9.66724 8.4375C9.66724 7.1943 10.1764 6.00201 11.0827 5.12294C11.9891 4.24386 13.2183 3.75 14.5001 3.75C15.7818 3.75 17.011 4.24386 17.9174 5.12294C18.8237 6.00201 19.3329 7.1943 19.3329 8.4375C19.3329 9.6807 18.8237 10.873 17.9174 11.7521C17.011 12.6311 15.7818 13.125 14.5001 13.125ZM14.5001 5.625C12.8956 5.625 11.6004 6.88125 11.6004 8.4375C11.6004 9.99375 12.8956 11.25 14.5001 11.25C16.1045 11.25 17.3997 9.99375 17.3997 8.4375C17.3997 6.88125 16.1045 5.625 14.5001 5.625Z" fill="#5E5E5E"/>
<path d="M26.0987 20.625C25.5574 20.625 25.1321 20.2125 25.1321 19.6875C25.1321 19.1625 25.5574 18.75 26.0987 18.75C26.64 18.75 27.0652 18.3375 27.0652 17.8125C27.0652 16.5693 26.5561 15.377 25.6497 14.4979C24.7434 13.6189 23.5142 13.125 22.2324 13.125H20.2993C19.758 13.125 19.3327 12.7125 19.3327 12.1875C19.3327 11.6625 19.758 11.25 20.2993 11.25C21.9038 11.25 23.199 9.99375 23.199 8.4375C23.199 6.88125 21.9038 5.625 20.2993 5.625C19.758 5.625 19.3327 5.2125 19.3327 4.6875C19.3327 4.1625 19.758 3.75 20.2993 3.75C21.581 3.75 22.8103 4.24386 23.7166 5.12294C24.6229 6.00201 25.1321 7.1943 25.1321 8.4375C25.1321 9.6 24.7068 10.65 23.9722 11.475C26.8526 12.225 28.9984 14.775 28.9984 17.8125C28.9984 19.3687 27.7032 20.625 26.0987 20.625ZM2.90116 20.625C1.29666 20.625 0.00146484 19.3687 0.00146484 17.8125C0.00146484 14.775 2.1279 12.225 5.02759 11.475C4.31234 10.65 3.86772 9.6 3.86772 8.4375C3.86772 7.1943 4.37689 6.00201 5.28322 5.12294C6.18955 4.24386 7.41879 3.75 8.70054 3.75C9.24181 3.75 9.6671 4.1625 9.6671 4.6875C9.6671 5.2125 9.24181 5.625 8.70054 5.625C7.09604 5.625 5.80085 6.88125 5.80085 8.4375C5.80085 9.99375 7.09604 11.25 8.70054 11.25C9.24181 11.25 9.6671 11.6625 9.6671 12.1875C9.6671 12.7125 9.24181 13.125 8.70054 13.125H6.76741C5.48567 13.125 4.25642 13.6189 3.35009 14.4979C2.44376 15.377 1.93459 16.5693 1.93459 17.8125C1.93459 18.3375 2.35988 18.75 2.90116 18.75C3.44243 18.75 3.86772 19.1625 3.86772 19.6875C3.86772 20.2125 3.44243 20.625 2.90116 20.625ZM20.2993 26.25H8.70054C7.09604 26.25 5.80085 24.9937 5.80085 23.4375V21.5625C5.80085 17.9438 8.83585 15 12.5668 15H16.433C20.164 15 23.199 17.9438 23.199 21.5625V23.4375C23.199 24.9937 21.9038 26.25 20.2993 26.25ZM12.5668 16.875C11.285 16.875 10.0558 17.3689 9.14947 18.2479C8.24314 19.127 7.73397 20.3193 7.73397 21.5625V23.4375C7.73397 23.9625 8.15926 24.375 8.70054 24.375H20.2993C20.8406 24.375 21.2659 23.9625 21.2659 23.4375V21.5625C21.2659 20.3193 20.7567 19.127 19.8504 18.2479C18.944 17.3689 17.7148 16.875 16.433 16.875H12.5668Z" fill="#5E5E5E"/>
</svg>
