<svg width="33" height="34" viewBox="0 0 33 34" fill="none" xmlns="http://www.w3.org/2000/svg">
<rect x="31" y="2" width="30" height="29" rx="5" transform="rotate(90 31 2)" fill="#00FF98"/>
<path d="M22.0553 11.4413C20.947 10.9247 19.747 10.5497 18.497 10.333C18.475 10.3333 18.4541 10.3423 18.4387 10.358C18.2887 10.633 18.1137 10.9913 17.997 11.2663C16.6712 11.0665 15.3228 11.0665 13.997 11.2663C13.8803 10.983 13.7053 10.633 13.547 10.358C13.5387 10.3413 13.5137 10.333 13.4887 10.333C12.2387 10.5497 11.047 10.9247 9.93034 11.4413C9.92201 11.4413 9.91367 11.4497 9.90534 11.458C7.63867 14.8497 7.01367 18.1497 7.32201 21.4163C7.32201 21.433 7.33034 21.4497 7.34701 21.458C8.84701 22.558 10.2887 23.2247 11.7137 23.6663C11.7387 23.6747 11.7637 23.6663 11.772 23.6497C12.1053 23.1913 12.4053 22.708 12.6637 22.1997C12.6803 22.1663 12.6637 22.133 12.6303 22.1247C12.1553 21.9413 11.7053 21.7247 11.2637 21.4747C11.2303 21.458 11.2303 21.408 11.2553 21.383C11.347 21.3163 11.4387 21.2413 11.5303 21.1747C11.547 21.158 11.572 21.158 11.5887 21.1663C14.4553 22.4747 17.547 22.4747 20.3803 21.1663C20.397 21.158 20.422 21.158 20.4387 21.1747C20.5303 21.2497 20.622 21.3163 20.7137 21.3913C20.747 21.4163 20.747 21.4663 20.7053 21.483C20.272 21.7413 19.8137 21.9497 19.3387 22.133C19.3053 22.1413 19.297 22.183 19.3053 22.208C19.572 22.7163 19.872 23.1997 20.197 23.658C20.222 23.6663 20.247 23.6747 20.272 23.6663C21.7053 23.2247 23.147 22.558 24.647 21.458C24.6637 21.4497 24.672 21.433 24.672 21.4163C25.0387 17.6413 24.0637 14.3663 22.0887 11.458C22.0803 11.4497 22.072 11.4413 22.0553 11.4413ZM13.097 19.4247C12.2387 19.4247 11.522 18.633 11.522 17.658C11.522 16.683 12.222 15.8913 13.097 15.8913C13.9803 15.8913 14.6803 16.6913 14.672 17.658C14.672 18.633 13.972 19.4247 13.097 19.4247ZM18.9053 19.4247C18.047 19.4247 17.3303 18.633 17.3303 17.658C17.3303 16.683 18.0303 15.8913 18.9053 15.8913C19.7887 15.8913 20.4887 16.6913 20.4803 17.658C20.4803 18.633 19.7887 19.4247 18.9053 19.4247Z" fill="black"/>
<rect x="32.5" y="0.5" width="33" height="32" rx="5.5" transform="rotate(90 32.5 0.5)" stroke="#00FF98"/>
</svg>
