<svg width="47" height="38" viewBox="0 0 47 38" fill="none" xmlns="http://www.w3.org/2000/svg">
<path d="M41.5722 15.8605C41.1932 15.574 40.735 15.3923 40.2498 15.3361C39.7645 15.28 39.2718 15.3517 38.8279 15.543L30.5667 19.0708L25.6458 11.0538C25.4107 10.6795 25.0729 10.37 24.6668 10.1568C24.2606 9.94349 23.8007 9.83409 23.3338 9.8397C22.8669 9.84531 22.4097 9.96572 22.0088 10.1887C21.6079 10.4116 21.2776 10.7292 21.0516 11.1089L16.3247 19.2419L7.98118 15.9136C7.53185 15.7332 7.03693 15.6733 6.55238 15.7406C6.06782 15.8079 5.61296 15.9997 5.23921 16.2943C4.86546 16.5889 4.58772 16.9745 4.43739 17.4077C4.28706 17.8408 4.27014 18.3041 4.38854 18.7453L8.75435 35.1956C8.83787 35.5141 8.99019 35.8134 9.20208 36.0754C9.41396 36.3374 9.681 36.5566 9.98701 36.7198C10.4013 36.9437 10.8734 37.0591 11.3531 37.0539C11.5862 37.0507 11.8178 37.0171 12.0411 36.9542C19.6142 34.9127 27.6382 34.8163 35.2582 36.6753C35.9538 36.8363 36.6903 36.7343 37.306 36.3917C37.6099 36.2233 37.873 35.9983 38.0788 35.7309C38.2846 35.4636 38.4286 35.1596 38.5017 34.8383L42.4875 18.2876C42.594 17.8436 42.5647 17.3811 42.403 16.9522C42.2412 16.5233 41.9535 16.1452 41.5722 15.8605Z" fill="#FFAA00"/>
<circle cx="23.2828" cy="5.74166" r="5.46315" transform="rotate(-0.688251 23.2828 5.74166)" fill="#FFAA00"/>
<circle cx="23.513" cy="24.8618" r="4.09736" transform="rotate(-0.688251 23.513 24.8618)" fill="#BE9502"/>
<circle cx="43.1925" cy="14.3814" r="3.41447" transform="rotate(-0.688251 43.1925 14.3814)" fill="#FFAA00"/>
<circle cx="3.58658" cy="14.8564" r="3.41447" transform="rotate(-0.688251 3.58658 14.8564)" fill="#FFAA00"/>
<circle cx="13.2938" cy="27.0328" r="2.04868" transform="rotate(-0.688251 13.2938 27.0328)" fill="#BE9502"/>
<circle cx="33.7792" cy="26.7865" r="2.04868" transform="rotate(-0.688251 33.7792 26.7865)" fill="#BE9502"/>
</svg>
