<svg width="23" height="25" viewBox="0 0 23 25" fill="none" xmlns="http://www.w3.org/2000/svg">
<path fill-rule="evenodd" clip-rule="evenodd" d="M14.3668 12.5064C14.1821 11.9838 13.8399 11.5313 13.3873 11.2113C12.9347 10.8913 12.394 10.7195 11.8397 10.7196V10.0496H10.4997V10.7196C9.78897 10.7196 9.10733 11.0019 8.60475 11.5045C8.10217 12.0071 7.81982 12.6887 7.81982 13.3995C7.81982 14.1102 8.10217 14.7919 8.60475 15.2945C9.10733 15.797 9.78897 16.0794 10.4997 16.0794V18.7593C9.91684 18.7593 9.42039 18.3874 9.23548 17.8662C9.20805 17.7809 9.16379 17.702 9.10532 17.6341C9.04686 17.5663 8.97538 17.5108 8.89511 17.471C8.81483 17.4313 8.7274 17.408 8.63798 17.4026C8.54856 17.3972 8.45897 17.4098 8.37451 17.4397C8.29004 17.4695 8.21242 17.516 8.14623 17.5764C8.08004 17.6367 8.02663 17.7098 7.98916 17.7911C7.95168 17.8725 7.93091 17.9606 7.92806 18.0501C7.92521 18.1396 7.94035 18.2288 7.97258 18.3124C8.1573 18.835 8.49953 19.2875 8.95213 19.6075C9.40473 19.9275 9.94542 20.0993 10.4997 20.0992V20.7692H11.8397V20.0992C12.5504 20.0992 13.2321 19.8169 13.7346 19.3143C14.2372 18.8117 14.5196 18.1301 14.5196 17.4193C14.5196 16.7086 14.2372 16.0269 13.7346 15.5244C13.2321 15.0218 12.5504 14.7394 11.8397 14.7394V12.0595C12.1168 12.0595 12.3871 12.1453 12.6134 12.3053C12.8397 12.4652 13.0108 12.6914 13.1032 12.9526C13.1624 13.1202 13.2857 13.2574 13.446 13.334C13.5254 13.372 13.6115 13.3939 13.6994 13.3986C13.7872 13.4033 13.8752 13.3906 13.9581 13.3613C14.0411 13.332 14.1175 13.2867 14.1829 13.2278C14.2484 13.169 14.3016 13.0979 14.3395 13.0185C14.3775 12.9391 14.3994 12.853 14.4041 12.7652C14.4088 12.6773 14.3961 12.5894 14.3668 12.5064ZM10.4997 12.0595C10.1443 12.0595 9.80352 12.2007 9.55223 12.452C9.30095 12.7033 9.15977 13.0441 9.15977 13.3995C9.15977 13.7549 9.30095 14.0957 9.55223 14.347C9.80352 14.5983 10.1443 14.7394 10.4997 14.7394V12.0595ZM11.8397 18.7593C12.195 18.7593 12.5359 18.6181 12.7872 18.3668C13.0384 18.1155 13.1796 17.7747 13.1796 17.4193C13.1796 17.064 13.0384 16.7231 12.7872 16.4718C12.5359 16.2206 12.195 16.0794 11.8397 16.0794V18.7593Z" fill="white"/>
<path fill-rule="evenodd" clip-rule="evenodd" d="M3.9025 1.756C5.54662 0.951363 8.24393 0 11.1958 0C14.0861 0 16.7124 0.911834 18.3478 1.70575L18.4403 1.75064C18.9334 1.99451 19.3313 2.22498 19.6114 2.41191L17.1365 6.02977C22.842 11.8626 27.2491 24.1171 11.1958 24.1171C-4.85741 24.1171 -0.568905 12.085 5.18617 6.02977L2.72737 2.41191C2.91697 2.28796 3.15749 2.14392 3.44424 1.99116C3.58627 1.91479 3.73903 1.83595 3.9025 1.756ZM15.546 5.9822L17.5271 3.0859C15.6847 3.21856 13.4925 3.65136 11.3821 4.26238C9.87465 4.69786 8.19972 4.63153 6.64873 4.34545C6.25786 4.27309 5.8697 4.18683 5.48498 4.08684L6.77133 5.98086C9.52827 6.96237 12.7884 6.96237 15.546 5.9822ZM5.99751 7.12182C9.22344 8.36798 13.1006 8.36798 16.3265 7.12048C17.6727 8.54024 18.7991 10.1533 19.6683 11.9061C20.5741 13.7539 21.0672 15.601 20.9868 17.1929C20.9091 18.7291 20.3048 20.0416 18.9247 21.0171C17.4862 22.0334 15.0669 22.7771 11.1952 22.7771C7.31937 22.7771 4.8887 22.0462 3.43687 21.0412C2.04667 20.0785 1.43633 18.7834 1.3499 17.2679C1.25945 15.6935 1.74184 13.8557 2.64429 11.9952C3.50521 10.2211 4.70647 8.51336 5.99751 7.12182ZM5.22704 2.62362C5.76302 2.78307 6.32312 2.92176 6.89126 3.02694C8.3317 3.29225 9.77617 3.33111 11.0089 2.97401C12.4454 2.55535 13.9066 2.22621 15.3838 1.98848C14.1511 1.61732 12.7093 1.33995 11.1952 1.33995C8.88711 1.33995 6.73448 1.98379 5.22704 2.62362Z" fill="white"/>
</svg>
