<svg width="33" height="34" viewBox="0 0 33 34" fill="none" xmlns="http://www.w3.org/2000/svg">
<rect x="31" y="2" width="30" height="29" rx="5" transform="rotate(90 31 2)" fill="#00FF98"/>
<path d="M23.1103 13.6271V22.2047C23.1103 22.7622 22.7039 23.2136 22.202 23.2136H20.0817V17.4956L16.448 20.5236L12.8142 17.4956V23.2142H10.6939C10.5746 23.2142 10.4565 23.1881 10.3462 23.1374C10.236 23.0866 10.1358 23.0123 10.0515 22.9185C9.96713 22.8248 9.90024 22.7135 9.85463 22.591C9.80901 22.4685 9.78557 22.3373 9.78564 22.2047V13.6271C9.78564 12.3796 11.0676 11.6673 11.9659 12.4159L12.8142 13.1233L16.448 16.15L20.0817 13.1221L20.9301 12.4159C21.8278 11.6679 23.1103 12.3796 23.1103 13.6271Z" fill="black"/>
<rect x="32.5" y="0.5" width="33" height="32" rx="5.5" transform="rotate(90 32.5 0.5)" stroke="#00FF98"/>
</svg>
