<svg width="33" height="34" viewBox="0 0 33 34" fill="none" xmlns="http://www.w3.org/2000/svg">
<rect x="31" y="2" width="30" height="29" rx="5" transform="rotate(90 31 2)" fill="#00FF98"/>
<path fill-rule="evenodd" clip-rule="evenodd" d="M22.4809 10.6916C22.6868 10.605 22.9122 10.5751 23.1336 10.6051C23.355 10.6351 23.5643 10.7239 23.7398 10.8622C23.9152 11.0006 24.0504 11.1834 24.1312 11.3917C24.212 11.6 24.2355 11.8262 24.1992 12.0466L22.3092 23.5108C22.1259 24.6166 20.9125 25.2508 19.8984 24.7C19.05 24.2391 17.79 23.5291 16.6567 22.7883C16.09 22.4175 14.3542 21.23 14.5675 20.385C14.7509 19.6625 17.6675 16.9475 19.3342 15.3333C19.9884 14.6991 19.69 14.3333 18.9175 14.9166C16.9992 16.365 13.9192 18.5675 12.9009 19.1875C12.0025 19.7341 11.5342 19.8275 10.9742 19.7341C9.95254 19.5641 9.00504 19.3008 8.2317 18.98C7.1867 18.5466 7.23754 17.11 8.23087 16.6916L22.4809 10.6916Z" fill="black"/>
<rect x="32.5" y="0.5" width="33" height="32" rx="5.5" transform="rotate(90 32.5 0.5)" stroke="#00FF98"/>
</svg>
