<svg width="33" height="34" viewBox="0 0 33 34" fill="none" xmlns="http://www.w3.org/2000/svg">
<rect x="31" y="2" width="30" height="29" rx="5" transform="rotate(90 31 2)" fill="#00FF98"/>
<path d="M22.6667 13.6666L16.0001 17.8333L9.33341 13.6666V11.9999L16.0001 16.1666L22.6667 11.9999M22.6667 10.3333H9.33341C8.40841 10.3333 7.66675 11.0749 7.66675 11.9999V21.9999C7.66675 22.4419 7.84234 22.8659 8.1549 23.1784C8.46746 23.491 8.89139 23.6666 9.33341 23.6666H22.6667C23.1088 23.6666 23.5327 23.491 23.8453 23.1784C24.1578 22.8659 24.3334 22.4419 24.3334 21.9999V11.9999C24.3334 11.5579 24.1578 11.134 23.8453 10.8214C23.5327 10.5088 23.1088 10.3333 22.6667 10.3333Z" fill="black"/>
<rect x="32.5" y="0.5" width="33" height="32" rx="5.5" transform="rotate(90 32.5 0.5)" stroke="#00FF98"/>
</svg>
