<svg width="33" height="34" viewBox="0 0 33 34" fill="none" xmlns="http://www.w3.org/2000/svg">
<rect x="31" y="2" width="30" height="29" rx="5" transform="rotate(90 31 2)" fill="#00FF98"/>
<path d="M24.4333 11.5833C23.7917 11.875 23.1 12.0666 22.3833 12.1583C23.1167 11.7166 23.6833 11.0166 23.95 10.175C23.2583 10.5916 22.4917 10.8833 21.6833 11.05C21.025 10.3333 20.1 9.91663 19.05 9.91663C17.0917 9.91663 15.4917 11.5166 15.4917 13.4916C15.4917 13.775 15.525 14.05 15.5833 14.3083C12.6167 14.1583 9.975 12.7333 8.21667 10.575C7.90833 11.1 7.73333 11.7166 7.73333 12.3666C7.73333 13.6083 8.35833 14.7083 9.325 15.3333C8.73333 15.3333 8.18333 15.1666 7.7 14.9166V14.9416C7.7 16.675 8.93333 18.125 10.5667 18.45C10.0424 18.5941 9.4917 18.614 8.95833 18.5083C9.18467 19.2187 9.62795 19.8403 10.2258 20.2857C10.8237 20.7312 11.5462 20.978 12.2917 20.9916C11.0281 21.9921 9.46167 22.5328 7.85 22.525C7.56667 22.525 7.28333 22.5083 7 22.475C8.58333 23.4916 10.4667 24.0833 12.4833 24.0833C19.05 24.0833 22.6583 18.6333 22.6583 13.9083C22.6583 13.75 22.6583 13.6 22.65 13.4416C23.35 12.9416 23.95 12.3083 24.4333 11.5833Z" fill="black"/>
<rect x="32.5" y="0.5" width="33" height="32" rx="5.5" transform="rotate(90 32.5 0.5)" stroke="#00FF98"/>
</svg>
