<svg width="24" height="24" viewBox="0 0 24 24" fill="none" xmlns="http://www.w3.org/2000/svg">
<path d="M20.471 9.406C20.5 10.29 20.5 11.312 20.5 12.5C20.5 16.743 20.5 18.864 19.182 20.182C17.864 21.5 15.742 21.5 11.5 21.5C7.258 21.5 5.136 21.5 3.818 20.182C2.5 18.864 2.5 16.742 2.5 12.5C2.5 8.258 2.5 6.136 3.818 4.818C5.136 3.5 7.258 3.5 11.5 3.5C12.688 3.5 13.71 3.5 14.594 3.529M21.5 4.5C21.5 5.03043 21.2893 5.53914 20.9142 5.91421C20.5391 6.28929 20.0304 6.5 19.5 6.5C18.9696 6.5 18.4609 6.28929 18.0858 5.91421C17.7107 5.53914 17.5 5.03043 17.5 4.5C17.5 3.96957 17.7107 3.46086 18.0858 3.08579C18.4609 2.71071 18.9696 2.5 19.5 2.5C20.0304 2.5 20.5391 2.71071 20.9142 3.08579C21.2893 3.46086 21.5 3.96957 21.5 4.5Z" stroke="#05F292" stroke-width="1.5" stroke-linecap="round" stroke-linejoin="round"/>
<path d="M5.5 12.5H8L10 8.5L13 16.5L15 12.5H17.5" stroke="#05F292" stroke-width="1.5" stroke-linecap="round" stroke-linejoin="round"/>
</svg>
