<svg width="24" height="24" viewBox="0 0 24 24" fill="none" xmlns="http://www.w3.org/2000/svg">
<path d="M19.2701 5.33006C17.9401 4.71006 16.5001 4.26006 15.0001 4.00006C14.9737 4.00044 14.9486 4.01122 14.9301 4.03006C14.7501 4.36006 14.5401 4.79006 14.4001 5.12006C12.8091 4.88021 11.1911 4.88021 9.60012 5.12006C9.46012 4.78006 9.25012 4.36006 9.06012 4.03006C9.05012 4.01006 9.02012 4.00006 8.99012 4.00006C7.49012 4.26006 6.06012 4.71006 4.72012 5.33006C4.71012 5.33006 4.70012 5.34006 4.69012 5.35006C1.97012 9.42006 1.22012 13.3801 1.59012 17.3001C1.59012 17.3201 1.60012 17.3401 1.62012 17.3501C3.42012 18.6701 5.15012 19.4701 6.86012 20.0001C6.89012 20.0101 6.92012 20.0001 6.93012 19.9801C7.33012 19.4301 7.69012 18.8501 8.00012 18.2401C8.02012 18.2001 8.00012 18.1601 7.96012 18.1501C7.39012 17.9301 6.85012 17.6701 6.32012 17.3701C6.28012 17.3501 6.28012 17.2901 6.31012 17.2601C6.42012 17.1801 6.53012 17.0901 6.64012 17.0101C6.66012 16.9901 6.69012 16.9901 6.71012 17.0001C10.1501 18.5701 13.8601 18.5701 17.2601 17.0001C17.2801 16.9901 17.3101 16.9901 17.3301 17.0101C17.4401 17.1001 17.5501 17.1801 17.6601 17.2701C17.7001 17.3001 17.7001 17.3601 17.6501 17.3801C17.1301 17.6901 16.5801 17.9401 16.0101 18.1601C15.9701 18.1701 15.9601 18.2201 15.9701 18.2501C16.2901 18.8601 16.6501 19.4401 17.0401 19.9901C17.0701 20.0001 17.1001 20.0101 17.1301 20.0001C18.8501 19.4701 20.5801 18.6701 22.3801 17.3501C22.4001 17.3401 22.4101 17.3201 22.4101 17.3001C22.8501 12.7701 21.6801 8.84006 19.3101 5.35006C19.3001 5.34006 19.2901 5.33006 19.2701 5.33006ZM8.52012 14.9101C7.49012 14.9101 6.63012 13.9601 6.63012 12.7901C6.63012 11.6201 7.47012 10.6701 8.52012 10.6701C9.58012 10.6701 10.4201 11.6301 10.4101 12.7901C10.4101 13.9601 9.57012 14.9101 8.52012 14.9101ZM15.4901 14.9101C14.4601 14.9101 13.6001 13.9601 13.6001 12.7901C13.6001 11.6201 14.4401 10.6701 15.4901 10.6701C16.5501 10.6701 17.3901 11.6301 17.3801 12.7901C17.3801 13.9601 16.5501 14.9101 15.4901 14.9101Z" fill="black"/>
</svg>
