<svg width="14" height="14" viewBox="0 0 14 14" fill="none" xmlns="http://www.w3.org/2000/svg">
<g clip-path="url(#clip0_4292_497)">
<path d="M3.79102 3.62616V2.27866C3.79109 2.06111 3.87757 1.8525 4.03143 1.6987C4.18528 1.5449 4.39393 1.4585 4.61147 1.4585H11.7206C11.9382 1.4585 12.1468 1.54494 12.3007 1.6988C12.4546 1.85267 12.541 2.06136 12.541 2.27895V9.38833C12.5409 9.60583 12.4545 9.81439 12.3007 9.96819C12.1469 10.122 11.9383 10.2084 11.7208 10.2085H10.3582" stroke="white" stroke-linecap="round" stroke-linejoin="round"/>
<path d="M9.38784 3.79181H2.27788C2.06038 3.79196 1.85185 3.87847 1.69811 4.03232C1.54437 4.18617 1.45801 4.39477 1.45801 4.61227V11.7214C1.45801 11.9389 1.54445 12.1476 1.69831 12.3015C1.85218 12.4554 2.06087 12.5418 2.27847 12.5418H9.38784C9.60534 12.5417 9.81391 12.4553 9.9677 12.3015C10.1215 12.1477 10.2079 11.9391 10.208 11.7216V4.61168C10.2079 4.39424 10.1214 4.18574 9.9676 4.03201C9.81381 3.87828 9.60529 3.79189 9.38784 3.79181Z" stroke="white" stroke-linejoin="round"/>
</g>
<defs>
<clipPath id="clip0_4292_497">
<rect width="14" height="14" fill="white"/>
</clipPath>
</defs>
</svg>
