<svg width="28" height="28" viewBox="0 0 28 28" fill="none" xmlns="http://www.w3.org/2000/svg">
<rect width="28" height="28" rx="14" fill="white"/>
<path d="M7.41162 20.5882V17.4771L17.0744 7.83267C17.2208 7.69847 17.3825 7.59477 17.5597 7.52156C17.7368 7.44836 17.9228 7.41176 18.1175 7.41176C18.3122 7.41176 18.5013 7.44836 18.6848 7.52156C18.8683 7.59477 19.0269 7.70457 19.1606 7.85097L20.1672 8.87581C20.3136 9.01002 20.4205 9.16862 20.4878 9.35163C20.5551 9.53463 20.5886 9.71764 20.5881 9.90065C20.5881 10.0959 20.5547 10.282 20.4878 10.4592C20.4209 10.6363 20.3141 10.7979 20.1672 10.9438L10.5227 20.5882H7.41162ZM18.0992 10.9255L19.124 9.90065L18.0992 8.87581L17.0744 9.90065L18.0992 10.9255Z" fill="black"/>
</svg>
