<svg width="24" height="24" viewBox="0 0 24 24" fill="none" xmlns="http://www.w3.org/2000/svg">
<path d="M5 21V9H8V7C8 5.886 8.38833 4.941 9.165 4.165C9.941 3.38833 10.886 3 12 3C13.114 3 14.0593 3.38833 14.836 4.165C15.6127 4.94167 16.0007 5.88667 16 7V9H19V21H5ZM12 16.5C12.422 16.5 12.7773 16.3553 13.066 16.066C13.3553 15.7773 13.5 15.422 13.5 15C13.5 14.578 13.3553 14.2227 13.066 13.934C12.7767 13.6453 12.4213 13.5007 12 13.5C11.5787 13.4993 11.2233 13.644 10.934 13.934C10.6447 14.2227 10.5 14.578 10.5 15C10.5 15.422 10.6447 15.7773 10.934 16.066C11.2227 16.3553 11.578 16.5 12 16.5ZM9 9H15V7C15 6.16667 14.7083 5.45833 14.125 4.875C13.5417 4.29167 12.8333 4 12 4C11.1667 4 10.4583 4.29167 9.875 4.875C9.29167 5.45833 9 6.16667 9 7V9Z" fill="#FFC800"/>
</svg>
