<svg width="21" height="21" viewBox="0 0 21 21" fill="none" xmlns="http://www.w3.org/2000/svg">
<path d="M10.5 0.700045L10.955 0.168046C10.8282 0.0595954 10.6668 0 10.5 0C10.3332 0 10.1718 0.0595954 10.045 0.168046L10.5 0.700045ZM0.7 9.10003L0.245 8.56803L0 8.77803V9.10003H0.7ZM7.7 20.3V21C7.88565 21 8.0637 20.9263 8.19498 20.795C8.32625 20.6637 8.4 20.4857 8.4 20.3H7.7ZM13.3 20.3H12.6C12.6 20.4857 12.6737 20.6637 12.805 20.795C12.9363 20.9263 13.1143 21 13.3 21V20.3ZM20.3 9.10003H21V8.77803L20.755 8.56803L20.3 9.10003ZM2.1 21H7.7V19.6H2.1V21ZM20.755 8.56803L10.955 0.168046L10.045 1.23204L19.845 9.63203L20.755 8.56803ZM10.045 0.168046L0.245 8.56803L1.155 9.63203L10.955 1.23204L10.045 0.168046ZM8.4 20.3V16.1H7V20.3H8.4ZM12.6 16.1V20.3H14V16.1H12.6ZM13.3 21H18.9V19.6H13.3V21ZM21 18.9V9.10003H19.6V18.9H21ZM0 9.10003V18.9H1.4V9.10003H0ZM10.5 14C11.057 14 11.5911 14.2213 11.9849 14.6151C12.3788 15.0089 12.6 15.5431 12.6 16.1H14C14 15.1718 13.6313 14.2815 12.9749 13.6251C12.3185 12.9688 11.4283 12.6 10.5 12.6V14ZM10.5 12.6C9.57174 12.6 8.6815 12.9688 8.02513 13.6251C7.36875 14.2815 7 15.1718 7 16.1H8.4C8.4 15.5431 8.62125 15.0089 9.01508 14.6151C9.4089 14.2213 9.94305 14 10.5 14V12.6ZM18.9 21C19.457 21 19.9911 20.7788 20.3849 20.3849C20.7788 19.9911 21 19.457 21 18.9H19.6C19.6 19.0857 19.5263 19.2637 19.395 19.395C19.2637 19.5263 19.0857 19.6 18.9 19.6V21ZM2.1 19.6C1.91435 19.6 1.7363 19.5263 1.60503 19.395C1.47375 19.2637 1.4 19.0857 1.4 18.9H0C0 19.457 0.221249 19.9911 0.615076 20.3849C1.0089 20.7788 1.54305 21 2.1 21V19.6Z" fill="white"/>
</svg>
