<svg width="24" height="25" viewBox="0 0 24 25" fill="none" xmlns="http://www.w3.org/2000/svg">
<path d="M22.46 6.1206C21.69 6.4706 20.86 6.7006 20 6.8106C20.88 6.2806 21.56 5.4406 21.88 4.4306C21.05 4.9306 20.13 5.2806 19.16 5.4806C18.37 4.6206 17.26 4.1206 16 4.1206C13.65 4.1206 11.73 6.04061 11.73 8.41061C11.73 8.75061 11.77 9.08061 11.84 9.39061C8.28004 9.21061 5.11004 7.50061 3.00004 4.91061C2.63004 5.54061 2.42004 6.28061 2.42004 7.06061C2.42004 8.55061 3.17004 9.87061 4.33004 10.6206C3.62004 10.6206 2.96004 10.4206 2.38004 10.1206L2.38004 10.1506C2.38004 12.2306 3.86004 13.9706 5.82004 14.3606C5.19088 14.5335 4.53008 14.5575 3.89004 14.4306C4.16165 15.2831 4.69358 16.029 5.41106 16.5635C6.12854 17.0981 6.99549 17.3943 7.89004 17.4106C6.37371 18.6111 4.49405 19.26 2.56004 19.2506C2.22004 19.2506 1.88004 19.2306 1.54004 19.1906C3.44004 20.4106 5.70004 21.1206 8.12004 21.1206C16 21.1206 20.33 14.5806 20.33 8.9106C20.33 8.7206 20.33 8.5406 20.32 8.3506C21.16 7.7506 21.88 6.9906 22.46 6.1206Z" fill="black"/>
</svg>
