<svg width="20" height="20" viewBox="0 0 20 20" fill="none" xmlns="http://www.w3.org/2000/svg">
<g clip-path="url(#clip0_4292_1219)">
<path d="M14.25 8.93739C14.3672 9.05459 14.433 9.21353 14.433 9.37926C14.433 9.54499 14.3672 9.70393 14.25 9.82114L9.24999 14.8211C9.13279 14.9383 8.97384 15.0041 8.80812 15.0041C8.64239 15.0041 8.48345 14.9383 8.36624 14.8211L5.86624 12.3211C5.75239 12.2033 5.6894 12.0454 5.69082 11.8815C5.69224 11.7176 5.75797 11.5609 5.87385 11.445C5.98973 11.3291 6.14649 11.2634 6.31037 11.262C6.47424 11.2605 6.63211 11.3235 6.74999 11.4374L8.81249 13.4999L13.375 8.93739C13.4922 8.82022 13.6511 8.75439 13.8169 8.75439C13.9826 8.75439 14.1415 8.82022 14.2587 8.93739L14.25 8.93739Z" fill="black"/>
<path fill-rule="evenodd" clip-rule="evenodd" d="M6.87503 1.24988C6.48302 1.25017 6.10096 1.37333 5.78257 1.60203C5.46418 1.83073 5.22548 2.15348 5.10003 2.52488C4.31378 2.56738 3.76253 2.66613 3.30003 2.90363C2.59613 3.26443 2.02333 3.83722 1.66253 4.54113C1.25378 5.34363 1.25378 6.39113 1.25378 8.49113L1.25378 13.9911C1.25378 16.0911 1.25378 17.1411 1.66253 17.9411C2.02333 18.645 2.59613 19.2178 3.30004 19.5786C4.10254 19.9874 5.15004 19.9874 7.25004 19.9874L12.75 19.9874C14.85 19.9874 15.9 19.9874 16.7 19.5786C17.405 19.2192 17.9781 18.646 18.3375 17.9411C18.7463 17.1386 18.7463 16.0911 18.7463 13.9911L18.7463 8.49113C18.7463 6.39113 18.7463 5.34113 18.3375 4.54113C17.9781 3.83621 17.405 3.26303 16.7 2.90363C16.235 2.66738 15.6875 2.56738 14.9 2.52488C14.7746 2.15348 14.5359 1.83073 14.2175 1.60203C13.8991 1.37333 13.517 1.25017 13.125 1.24988L12.79 1.24988C12.3575 0.502377 11.55 -0.000122492 10.6275 -0.000122455L9.37753 -0.000122403C8.45253 -0.000122365 7.64003 0.502378 7.21504 1.24988L6.88004 1.24988L6.87503 1.24988ZM8.11128 2.18738C8.05643 2.28239 7.97753 2.36128 7.88253 2.41614C7.78752 2.47099 7.67974 2.49987 7.57004 2.49988L6.87503 2.49988C6.70927 2.49988 6.5503 2.56573 6.43309 2.68294C6.31588 2.80015 6.25003 2.95912 6.25003 3.12488L6.25003 4.37488C6.25003 4.54064 6.31588 4.69961 6.43309 4.81682C6.5503 4.93403 6.70927 4.99988 6.87503 4.99988L13.125 4.99988C13.2908 4.99988 13.4498 4.93403 13.567 4.81682C13.6842 4.69961 13.75 4.54064 13.75 4.37488L13.75 3.12488C13.75 2.95912 13.6842 2.80015 13.567 2.68294C13.4498 2.56573 13.2908 2.49988 13.125 2.49988L12.43 2.49988C12.3203 2.49987 12.2126 2.47099 12.1175 2.41614C12.0225 2.36128 11.9436 2.28239 11.8888 2.18738L11.7088 1.87488C11.5991 1.68444 11.4412 1.52628 11.2509 1.41633C11.0607 1.30639 10.8448 1.24854 10.625 1.24863L9.37503 1.24863C9.15528 1.24854 8.9394 1.30639 8.74913 1.41633C8.55886 1.52628 8.40094 1.68444 8.29129 1.87488L8.11128 2.18738ZM4.88628 3.79988L4.99753 3.79113L4.99753 4.37863C4.99753 4.87591 5.19508 5.35282 5.54671 5.70445C5.89834 6.05608 6.37525 6.25363 6.87254 6.25363L13.1225 6.25363C13.6198 6.25363 14.0967 6.05608 14.4484 5.70445C14.8 5.35282 14.9975 4.87591 14.9975 4.37863L14.9975 3.79113L15.1088 3.79988C15.6563 3.84488 15.9375 3.92613 16.1325 4.02488C16.6025 4.26488 16.985 4.64738 17.225 5.11738C17.325 5.31238 17.4063 5.59363 17.45 6.14113C17.4963 6.70363 17.4975 7.42863 17.4975 8.50363L17.4975 14.0036C17.4975 15.0749 17.4963 15.8036 17.45 16.3661C17.405 16.9136 17.3238 17.1949 17.225 17.3899C16.9854 17.8603 16.6029 18.2427 16.1325 18.4824C15.9375 18.5824 15.6563 18.6636 15.1088 18.7074C14.5463 18.7536 13.8213 18.7549 12.7463 18.7549L7.24629 18.7549C6.17503 18.7549 5.44629 18.7536 4.88379 18.7074C4.33629 18.6624 4.05504 18.5811 3.86004 18.4824C3.38965 18.2427 3.00721 17.8603 2.76753 17.3899C2.66753 17.1949 2.58628 16.9136 2.54253 16.3661C2.49628 15.8036 2.49503 15.0786 2.49503 14.0036L2.49503 8.50363C2.49503 7.43238 2.49628 6.70363 2.54253 6.14113C2.58753 5.59363 2.66878 5.31238 2.76753 5.11738C3.00753 4.64738 3.39003 4.26488 3.86003 4.02488C4.05503 3.92488 4.33628 3.84363 4.88378 3.79988L4.88628 3.79988Z" fill="black"/>
</g>
<defs>
<clipPath id="clip0_4292_1219">
<rect width="20" height="20" fill="white"/>
</clipPath>
</defs>
</svg>
