<svg width="20" height="24" viewBox="0 0 20 24" fill="none" xmlns="http://www.w3.org/2000/svg">
<path fill-rule="evenodd" clip-rule="evenodd" d="M0.731667 0.754286C1.20006 0.271911 1.83552 0.000600178 2.49833 0L11.81 0C12.4728 0.000600178 13.1083 0.271911 13.5767 0.754286L19.2667 6.60686C19.7356 7.08863 19.9994 7.74224 20 8.424V21.4286C20 22.1106 19.7366 22.7646 19.2678 23.2468C18.7989 23.7291 18.163 24 17.5 24H2.5C1.83696 24 1.20107 23.7291 0.732233 23.2468C0.263392 22.7646 0 22.1106 0 21.4286V2.57143C0 1.88914 0.261667 1.23429 0.731667 0.754286ZM8.51833 7.76057C8.65217 7.85864 8.7659 7.98288 8.85301 8.1262C8.94011 8.26951 8.99889 8.42909 9.02598 8.5958C9.05307 8.7625 9.04794 8.93307 9.01088 9.09773C8.97382 9.26239 8.90556 9.41793 8.81 9.55543L6.48167 12.9086C6.37609 13.0603 6.23967 13.1866 6.08188 13.2786C5.92409 13.3706 5.74872 13.4263 5.56794 13.4416C5.38715 13.4569 5.20529 13.4316 5.03498 13.3674C4.86467 13.3032 4.70998 13.2016 4.58167 13.0697L3.185 11.6331C2.9642 11.3894 2.84399 11.067 2.84971 10.734C2.85542 10.4009 2.98661 10.0831 3.21563 9.84751C3.44465 9.61194 3.75363 9.47701 4.07746 9.47113C4.4013 9.46525 4.71471 9.58889 4.95167 9.816L5.305 10.1777L6.775 8.06229C6.96753 7.78475 7.25934 7.59723 7.58627 7.54097C7.9132 7.48471 8.24846 7.56261 8.51833 7.76057ZM10.1017 10.9269C10.1017 10.5859 10.2334 10.2588 10.4678 10.0177C10.7022 9.7766 11.0201 9.64114 11.3517 9.64114H15.5183C15.8499 9.64114 16.1678 9.7766 16.4022 10.0177C16.6366 10.2588 16.7683 10.5859 16.7683 10.9269C16.7683 11.2678 16.6366 11.5949 16.4022 11.836C16.1678 12.0771 15.8499 12.2126 15.5183 12.2126H11.3517C11.0201 12.2126 10.7022 12.0771 10.4678 11.836C10.2334 11.5949 10.1017 11.2678 10.1017 10.9269ZM10.1017 17.7309C10.1017 17.3899 10.2334 17.0628 10.4678 16.8217C10.7022 16.5806 11.0201 16.4451 11.3517 16.4451H15.5183C15.8499 16.4451 16.1678 16.5806 16.4022 16.8217C16.6366 17.0628 16.7683 17.3899 16.7683 17.7309C16.7683 18.0718 16.6366 18.3989 16.4022 18.64C16.1678 18.8811 15.8499 19.0166 15.5183 19.0166H11.3517C11.0201 19.0166 10.7022 18.8811 10.4678 18.64C10.2334 18.3989 10.1017 18.0718 10.1017 17.7309ZM8.81 16.4657C8.91 16.3287 8.98236 16.1724 9.02281 16.0062C9.06327 15.84 9.07101 15.6671 9.04559 15.4977C9.02016 15.3284 8.96208 15.166 8.87476 15.0201C8.78743 14.8741 8.67263 14.7476 8.53709 14.648C8.40156 14.5483 8.24802 14.4776 8.08552 14.4398C7.92301 14.4021 7.75481 14.3981 7.5908 14.4282C7.42678 14.4583 7.27027 14.5218 7.13046 14.615C6.99065 14.7082 6.87036 14.8292 6.77667 14.9709L5.305 17.088L4.95167 16.7246C4.71471 16.4975 4.4013 16.3738 4.07746 16.3797C3.75363 16.3856 3.44465 16.5205 3.21563 16.7561C2.98661 16.9916 2.85542 17.3094 2.84971 17.6425C2.84399 17.9756 2.9642 18.298 3.185 18.5417L4.58167 19.9783C4.70998 20.1102 4.86467 20.2117 5.03498 20.276C5.20529 20.3402 5.38715 20.3655 5.56794 20.3502C5.74872 20.3348 5.92409 20.2792 6.08188 20.1872C6.23967 20.0951 6.37609 19.9689 6.48167 19.8171L8.81 16.4657Z" fill="#05F292"/>
</svg>
