<svg width="20" height="18" viewBox="0 0 20 18" fill="none" xmlns="http://www.w3.org/2000/svg">
<path fill-rule="evenodd" clip-rule="evenodd" d="M15.7068 17.707C15.5193 17.8945 15.265 17.9998 14.9998 17.9998C14.7346 17.9998 14.4803 17.8945 14.2928 17.707L10.2928 13.707C10.153 13.5671 10.0578 13.389 10.0192 13.195C9.98064 13.0011 10.0004 12.8 10.0761 12.6173C10.1518 12.4346 10.2799 12.2785 10.4443 12.1686C10.6087 12.0587 10.802 12 10.9998 12H13.9998V1C13.9998 0.734784 14.1051 0.48043 14.2927 0.292893C14.4802 0.105357 14.7346 0 14.9998 0C15.265 0 15.5194 0.105357 15.7069 0.292893C15.8944 0.48043 15.9998 0.734784 15.9998 1V12H18.9998C19.1975 12 19.3908 12.0587 19.5552 12.1686C19.7197 12.2785 19.8478 12.4346 19.9235 12.6173C19.9991 12.8 20.0189 13.0011 19.9804 13.195C19.9418 13.389 19.8466 13.5671 19.7068 13.707L15.7068 17.707ZM5.70679 0.293C5.51926 0.105529 5.26495 0.000213623 4.99979 0.000213623C4.73462 0.000213623 4.48031 0.105529 4.29279 0.293L0.292787 4.293C0.152977 4.43285 0.057771 4.61102 0.0192035 4.80497C-0.0193641 4.99892 0.000438951 5.19995 0.076109 5.38265C0.151779 5.56535 0.279918 5.72152 0.444328 5.8314C0.608738 5.94129 0.802037 5.99996 0.999787 6H3.99979V17C3.99979 17.2652 4.10514 17.5196 4.29268 17.7071C4.48022 17.8946 4.73457 18 4.99979 18C5.265 18 5.51936 17.8946 5.70689 17.7071C5.89443 17.5196 5.99979 17.2652 5.99979 17V6H8.99979C9.19754 5.99996 9.39084 5.94129 9.55525 5.8314C9.71966 5.72152 9.8478 5.56535 9.92347 5.38265C9.99914 5.19995 10.0189 4.99892 9.98037 4.80497C9.9418 4.61102 9.8466 4.43285 9.70679 4.293L5.70679 0.293Z" fill="white"/>
</svg>
